<?xml version="1.0" encoding="utf-8"?>
<!-- Generator: Adobe Illustrator 20.0.0, SVG Export Plug-In . SVG Version: 6.00 Build 0)  -->
<!DOCTYPE svg PUBLIC "-//W3C//DTD SVG 1.1//EN" "http://www.w3.org/Graphics/SVG/1.1/DTD/svg11.dtd">
<svg version="1.1" id="Calque_1" xmlns="http://www.w3.org/2000/svg" xmlns:xlink="http://www.w3.org/1999/xlink" x="0px" y="0px"
	 viewBox="0 0 28 28.5" style="enable-background:new 0 0 28 28.5;" xml:space="preserve">
<style type="text/css">
	.st0{fill:#FFFFFF;}
</style>
<g>
	<path class="st0" d="M14,6.2C3.5,6.2,0,15,0,15s3.5,8.8,14,8.8S28,15,28,15S24.5,6.2,14,6.2z M14,22c-8.8,0-11.9-7-11.9-7
		S5.2,8,14,8s11.9,7,11.9,7S22.8,22,14,22z"/>
	<path class="st0" d="M14,9.8c-2.9,0-5.2,2.4-5.2,5.2c0,2.9,2.4,5.2,5.2,5.2c2.9,0,5.2-2.4,5.2-5.2C19.2,12.1,16.9,9.8,14,9.8z
		 M14,18.5c-1.9,0-3.5-1.6-3.5-3.5s1.6-3.5,3.5-3.5c1.9,0,3.5,1.6,3.5,3.5S15.9,18.5,14,18.5z"/>
	<circle class="st0" cx="14" cy="15" r="1.8"/>
</g>
</svg>
